<?xml version="1.0" encoding="UTF-8" standalone="no"?>
<!-- Generator: Adobe Illustrator 14.0.0, SVG Export Plug-In . SVG Version: 6.00 Build 43363)  -->

<svg
   xmlns:dc="http://purl.org/dc/elements/1.1/"
   xmlns:cc="http://creativecommons.org/ns#"
   xmlns:rdf="http://www.w3.org/1999/02/22-rdf-syntax-ns#"
   xmlns:svg="http://www.w3.org/2000/svg"
   xmlns="http://www.w3.org/2000/svg"
   xmlns:sodipodi="http://sodipodi.sourceforge.net/DTD/sodipodi-0.dtd"
   xmlns:inkscape="http://www.inkscape.org/namespaces/inkscape"
   version="1.1"
   id="Layer_1"
   x="0px"
   y="0px"
   width="209.78"
   height="211.01697"
   viewBox="116.5 106 209.77999 211.01697"
   enable-background="new 116.5 106 246.667 300"
   xml:space="preserve"
   inkscape:version="0.91 r13725"
   sodipodi:docname="logo.svg"><metadata
     id="metadata18"><rdf:RDF><cc:Work
         rdf:about=""><dc:format>image/svg+xml</dc:format><dc:type
           rdf:resource="http://purl.org/dc/dcmitype/StillImage" /><dc:title></dc:title></cc:Work></rdf:RDF></metadata><defs
     id="defs16"><clipPath
       clipPathUnits="userSpaceOnUse"
       id="clipPath3354"><rect
         style="opacity:0;fill:#ffffff;fill-opacity:1;stroke:#000006;stroke-width:0.1;stroke-miterlimit:4;stroke-dasharray:none;stroke-opacity:0.87421384"
         id="rect3356"
         width="227.54236"
         height="211.01697"
         x="126.66949"
         y="182.27118"
         ry="0" /></clipPath></defs><sodipodi:namedview
     pagecolor="#ffffff"
     bordercolor="#666666"
     borderopacity="1"
     objecttolerance="10"
     gridtolerance="10"
     guidetolerance="10"
     inkscape:pageopacity="0"
     inkscape:pageshadow="2"
     inkscape:window-width="1920"
     inkscape:window-height="1056"
     id="namedview14"
     showgrid="false"
     fit-margin-top="0"
     fit-margin-left="0"
     fit-margin-right="0"
     fit-margin-bottom="0"
     inkscape:zoom="0.78666667"
     inkscape:cx="103.61932"
     inkscape:cy="137.28815"
     inkscape:window-x="0"
     inkscape:window-y="24"
     inkscape:window-maximized="1"
     inkscape:current-layer="Layer_1" /><g
     id="g3"
     clip-path="url(#clipPath3354)"
     transform="translate(-18.443,-76.271179)"><path
       d="m 344.723,307.415 c -3.328,-3.177 -11.533,-11.2 -22.854,-18.508 11.32,-7.321 19.525,-15.331 22.854,-18.509 -4.203,-1.854 -14.648,-6.567 -27.783,-9.566 l 0,0 c 8.131,-10.757 13.094,-21.083 15.135,-25.226 -4.602,-0.283 -16.021,-1.14 -29.396,0.538 l 0,0 0,0 c 3.965,-12.883 5.125,-24.293 5.611,-28.88 -4.42,1.287 -15.453,4.398 -27.434,10.541 l 0,0 c -0.678,-13.457 -3.502,-24.573 -4.588,-29.04 -3.707,2.721 -13.029,9.413 -22.179,19.295 -5.252,-12.415 -11.709,-21.89 -14.254,-25.724 -2.56,3.834 -9.005,13.308 -14.255,25.723 -9.162,-9.882 -18.469,-16.574 -22.171,-19.294 -1.098,4.468 -3.915,15.583 -4.594,29.051 -11.986,-6.142 -23.021,-9.252 -27.435,-10.553 0.493,4.587 1.639,15.997 5.604,28.88 l 0,0 0,0.001 c 0,0 -0.001,-0.001 -0.001,-0.001 -13.369,-1.678 -24.787,-0.821 -29.39,-0.522 2.034,4.127 7.015,14.453 15.129,25.21 l 0,0 0,0 c -13.123,2.999 -23.563,7.711 -27.779,9.566 3.329,3.178 11.533,11.188 22.844,18.51 -11.311,7.307 -19.515,15.33 -22.844,18.507 4.216,1.854 14.656,6.563 27.779,9.56 -8.114,10.758 -13.094,21.085 -15.129,25.234 4.603,0.28 16.021,1.141 29.391,-0.53 -3.965,12.881 -5.111,24.289 -5.604,28.866 4.413,-1.29 15.448,-4.396 27.434,-10.531 l 0.001,0 c 0.679,13.448 3.496,24.563 4.594,29.04 3.702,-2.733 13.009,-9.416 22.171,-19.29 l 10e-4,0 c 5.249,12.406 11.695,21.887 14.254,25.717 2.545,-3.829 9.002,-13.301 14.255,-25.716 9.149,9.873 18.471,16.557 22.178,19.29 1.086,-4.478 3.91,-15.593 4.588,-29.04 l 0,0 0,-0.001 c 11.982,6.136 23.014,9.241 27.434,10.531 -0.486,-4.576 -1.646,-15.985 -5.611,-28.866 l 0.002,0 0,-10e-4 c 13.373,1.672 24.793,0.812 29.395,0.531 -2.041,-4.149 -7.004,-14.478 -15.135,-25.236 13.133,-2.995 23.579,-7.702 27.782,-9.557 z M 157.79,288.908 c 0,-0.001 0,-0.001 0,0 l 0,0 0,0 z m 96.298,80.856 0,0 0,0 c 0,0 0,0 0,0 z"
       id="path5"
       inkscape:connector-curvature="0"
       style="fill:#00a330" /><path
       d="m 292.969,319.61 c 8.436,0.194 16.617,-0.945 23.971,-2.637 -4.551,-6.006 -10.105,-12.137 -16.674,-17.399 7.977,-2.692 15.283,-6.568 21.604,-10.666 -6.32,-4.085 -13.627,-7.974 -21.604,-10.663 6.568,-5.271 12.123,-11.405 16.674,-17.412 -7.354,-1.688 -15.535,-2.819 -23.971,-2.62 4.389,-7.199 7.504,-14.869 9.709,-22.068 -7.475,0.92 -15.557,2.654 -23.404,5.726 l 0,0 c 1.668,-8.275 1.965,-16.525 1.584,-24.064 -6.705,3.44 -13.717,7.844 -20.037,13.396 l 0,0 c -1.264,-8.325 -3.811,-16.203 -6.732,-23.14 -5.136,5.532 -10.224,12.048 -14.254,19.439 -4.042,-7.392 -9.108,-13.908 -14.254,-19.439 -2.927,6.949 -5.466,14.815 -6.735,23.14 -6.315,-5.552 -13.325,-9.943 -20.03,-13.384 -0.387,7.528 -0.092,15.798 1.572,24.053 -7.844,-3.067 -15.924,-4.805 -23.402,-5.726 2.223,7.199 5.334,14.869 9.705,22.067 l -0.001,10e-4 0,0 0,0 c -8.415,-0.199 -16.607,0.933 -23.966,2.62 4.563,6.007 10.1,12.141 16.673,17.413 -7.979,2.688 -15.287,6.576 -21.606,10.662 6.32,4.098 13.629,7.974 21.608,10.666 l 0,0.001 c 0,-0.001 -0.001,-0.001 -0.001,-0.001 -6.574,5.263 -12.112,11.398 -16.674,17.401 7.358,1.69 15.552,2.83 23.966,2.636 l 0,0 c -4.37,7.196 -7.482,14.87 -9.704,22.068 7.478,-0.938 15.56,-2.67 23.402,-5.743 -1.664,8.277 -1.959,16.534 -1.572,24.078 6.705,-3.443 13.715,-7.849 20.03,-13.402 1.27,8.329 3.809,16.192 6.735,23.152 5.146,-5.547 10.213,-12.062 14.254,-19.453 4.03,7.392 9.118,13.906 14.254,19.453 2.921,-6.96 5.468,-14.823 6.732,-23.152 l 0,0 c 6.32,5.554 13.332,9.959 20.035,13.402 0.383,-7.544 0.086,-15.802 -1.582,-24.078 l 0,0 0,0 c 7.848,3.073 15.93,4.809 23.406,5.743 -2.207,-7.199 -5.323,-14.873 -9.711,-22.07 l 0,0 0,0 0,0 z"
       id="path7"
       inkscape:connector-curvature="0"
       style="fill:#3bbd00" /><path
       id="path41"
       d="m 275.727,116.521 -6.975,0 0,44.833 -0.152,6.68 6.746,0 0.152,-5.642 c 0.748,1.115 1.563,2.378 3.645,3.786 3.191,2.154 6.523,2.379 8.307,2.379 5.117,0 10.088,-2.155 13.057,-6.387 1.863,-2.45 3.561,-6.388 3.561,-13.59 0,-8.163 -2.52,-11.872 -4.377,-14.028 -3.406,-3.861 -8.084,-4.753 -11.797,-4.753 -8.459,0 -11.207,4.681 -12.166,6.387 l 0,-19.665 m 20.997,32.51 c 0,6.085 -2.152,14.477 -10.762,14.477 -10.385,0 -10.385,-11.66 -10.385,-14.107 0,-2.376 0,-14.848 10.686,-14.848 9.718,0.001 10.461,10.764 10.461,14.478 z"
       inkscape:connector-curvature="0"
       style="fill:#00a330" /><path
       id="path43"
       d="m 309.416,182.361 6.898,0 0,-18.483 c 2.002,3.267 6.002,5.568 11.418,5.568 8.912,0 16.99,-6.084 16.99,-19.969 0,-13.812 -7.635,-19.302 -15.646,-19.302 -3.037,0 -9.207,0.891 -12.689,6.751 l -0.148,-6.158 -7.051,0 c 0.148,3.562 0.229,4.456 0.229,6.086 l 0,45.507 m 6.673,-31.845 c 0,-3.345 0,-15.146 11.127,-15.146 8.23,0 10.24,6.979 10.24,13.661 0,2.673 -0.367,8.02 -3.043,11.653 -2.373,3.269 -6.086,3.641 -7.859,3.641 -9.793,0 -10.465,-9.281 -10.465,-13.809 z"
       inkscape:connector-curvature="0"
       style="fill:#00a330" /><path
       d="m 300.266,299.573 c -5.416,-4.349 -11.531,-8.096 -18.391,-10.665 l 0,0 0,-0.001 c 6.859,-2.57 12.975,-6.329 18.391,-10.663 -6.582,-2.229 -13.604,-3.65 -20.926,-3.726 5.564,-4.771 10.037,-10.378 13.629,-16.307 -6.932,0.149 -14.027,1.228 -20.93,3.653 l 0,-10e-4 c 3.59,-6.379 5.877,-13.184 7.234,-19.995 -6.461,2.521 -12.758,5.954 -18.41,10.602 l 0,0 c 1.197,-7.223 1.004,-14.397 -0.043,-21.271 -5.208,4.586 -9.97,9.975 -13.679,16.282 l -0.001,0 0,0 c -1.357,-7.208 -3.966,-13.888 -7.306,-19.982 -3.336,6.094 -5.957,12.774 -7.305,19.982 -3.714,-6.308 -8.468,-11.688 -13.685,-16.282 -1.054,6.874 -1.225,14.048 -0.039,21.271 -5.652,-4.649 -11.955,-8.082 -18.419,-10.603 1.37,6.812 3.641,13.616 7.245,19.995 l 0,10e-4 c -6.903,-2.426 -14.014,-3.504 -20.943,-3.653 3.597,5.928 8.078,11.536 13.642,16.306 l 0,10e-4 0,0 c -7.323,0.075 -14.359,1.496 -20.934,3.726 5.423,4.334 11.541,8.093 18.387,10.663 l 0,0 c -6.846,2.57 -12.964,6.317 -18.386,10.666 6.573,2.224 13.609,3.646 20.933,3.718 l 0,10e-4 0,10e-4 c -5.563,4.76 -10.045,10.381 -13.642,16.317 6.929,-0.158 14.04,-1.229 20.943,-3.665 0.079,-0.14 0.166,-0.278 0.246,-0.418 l 0.165,0.269 c -0.136,0.05 -0.273,0.102 -0.411,0.15 -3.604,6.376 -5.875,13.184 -7.244,19.989 6.463,-2.509 12.766,-5.949 18.418,-10.587 -1.186,7.214 -1.015,14.384 0.039,21.263 5.217,-4.592 9.971,-9.974 13.685,-16.275 l 0.001,0 c 1.347,7.203 3.969,13.881 7.304,19.975 3.341,-6.094 5.95,-12.771 7.306,-19.975 l 0,0 c 3.71,6.301 8.472,11.684 13.68,16.275 1.049,-6.88 1.24,-14.046 0.043,-21.264 l 0,0 0,-10e-4 c 0,10e-4 0,10e-4 0,10e-4 5.652,4.639 11.949,8.078 18.41,10.588 -1.357,-6.806 -3.645,-13.613 -7.234,-19.989 6.904,2.436 13.998,3.506 20.93,3.664 -3.592,-5.937 -8.066,-11.558 -13.631,-16.317 l 0,0 0,-10e-4 c 7.324,-0.071 14.346,-1.501 20.928,-3.718 z"
       id="path11"
       inkscape:connector-curvature="0"
       style="fill:#ffe400" /><path
       id="path117"
       d="m 232.56,268.932 c -3.752,-6.717 -8.464,-12.114 -13.754,-16.46 1.122,6.752 3.448,13.53 7.364,20.135 -5.822,-5.006 -12.093,-8.479 -18.538,-10.742 3.335,5.958 7.846,11.54 13.801,16.406 -7.195,-2.717 -14.282,-3.833 -21.103,-3.752 5.181,4.456 11.312,8.149 18.574,10.699 -7.682,-0.101 -14.713,1.281 -21.121,3.689 6.408,2.404 13.439,3.784 21.121,3.69 -7.263,2.544 -13.394,6.246 -18.574,10.694 6.82,0.08 13.906,-1.028 21.103,-3.755 -5.955,4.873 -10.466,10.444 -13.801,16.409 6.445,-2.272 12.716,-5.742 18.542,-10.743 -3.921,6.607 -6.246,13.387 -7.368,20.146 5.289,-4.356 10.001,-9.752 13.754,-16.457 -1.427,7.545 -1.279,14.719 -0.03,21.444 3.488,-5.899 6.058,-12.576 7.305,-20.159 1.254,7.583 3.821,14.26 7.306,20.159 1.256,-6.726 1.393,-13.899 -0.038,-21.444 3.758,6.705 8.479,12.101 13.759,16.457 -1.111,-6.758 -3.449,-13.538 -7.379,-20.146 5.836,5.001 12.114,8.471 18.557,10.743 -3.346,-5.965 -7.859,-11.536 -13.805,-16.409 7.201,2.727 14.273,3.835 21.104,3.755 -5.186,-4.448 -11.322,-8.15 -18.572,-10.71 7.682,0.109 14.709,-1.271 21.109,-3.675 -6.4,-2.408 -13.428,-3.79 -21.109,-3.689 7.25,-2.551 13.387,-6.243 18.572,-10.699 -6.83,-0.081 -13.902,1.035 -21.107,3.752 5.949,-4.866 10.465,-10.448 13.809,-16.406 -6.441,2.275 -12.721,5.736 -18.556,10.747 3.931,-6.61 6.267,-13.388 7.38,-20.14 -5.282,4.346 -10.003,9.744 -13.761,16.459 1.431,-7.565 1.294,-14.734 0.038,-21.448 -3.484,5.876 -6.051,12.569 -7.306,20.158 -1.246,-7.589 -3.816,-14.282 -7.304,-20.158 -1.25,6.716 -1.399,13.883 0.028,21.45"
       inkscape:connector-curvature="0"
       style="fill:#ffffff" /></g><rect
     style="opacity:0;fill:#ffffff;fill-opacity:1;stroke:#000006;stroke-width:0.1;stroke-miterlimit:4;stroke-dasharray:none;stroke-opacity:0.87421384"
     id="rect3348"
     width="221.18643"
     height="219.91527"
     x="109.49767"
     y="106.00002"
     clip-path="none" /><rect
     style="opacity:0;fill:#ffffff;fill-opacity:1;stroke:#000006;stroke-width:0.1;stroke-miterlimit:4;stroke-dasharray:none;stroke-opacity:0.87421384"
     id="rect3350"
     width="429.66101"
     height="409.32202"
     x="-98.976906"
     y="-106.28813" /></svg>